<svg width="336" height="336" viewBox="0 0 336 336" fill="none" xmlns="http://www.w3.org/2000/svg">
<g clip-path="url(#clip0)">
<path d="M311.335 115.774C309.98 105.588 309.789 88.044 319.25 82.153C319.419 82.045 319.545 81.889 319.693 81.755C327.428 79.281 332.781 75.809 328.579 71.137L214.477 36.757L29.7199 62.444C29.7199 62.444 8.56294 65.468 10.4529 98.338C11.4789 116.228 17.0899 125.014 21.9969 129.338L6.83594 133.907C2.62794 138.579 7.97994 142.052 15.7159 144.522C15.8629 144.66 15.9869 144.815 16.1589 144.923C25.6139 150.819 25.4319 168.361 24.0719 178.549C-9.89506 188.194 2.29794 191.337 2.29794 191.337L9.74894 193.14C4.50794 197.876 -0.697062 206.857 0.277938 223.89C2.16894 256.754 19.5469 259.022 19.5469 259.022L140.451 298.32L322.941 254.118C322.941 254.118 335.138 250.97 301.162 241.324C299.796 231.152 299.606 213.612 309.083 207.701C309.257 207.596 309.384 207.437 309.525 207.305C317.261 204.831 322.609 201.362 318.406 196.69L310.474 194.295C315.764 191.105 323.71 182.768 324.955 161.112C325.814 146.216 321.928 137.492 317.43 132.356L333.108 128.562C333.109 128.568 345.306 125.42 311.335 115.774ZM158.693 115.353L189.381 109.046L293.089 87.734L308.54 84.556C303.603 93.592 303.81 105.958 304.627 113.906C304.806 115.704 305.012 117.346 305.212 118.594L288.3 122.799L157.403 155.362L158.693 115.353ZM26.8699 147.336L42.3189 150.514L141.916 170.988L150.617 172.77L176.71 178.133L177.997 218.143L43.4629 184.672L30.1999 181.376C30.3949 180.126 30.6009 178.486 30.7879 176.683C31.5999 168.741 31.8109 156.372 26.8699 147.336ZM20.8679 96.756C20.6809 88.013 22.2389 81.69 25.3879 78.476C27.3919 76.424 29.7569 75.997 31.3789 75.997C32.2359 75.997 32.8529 76.116 32.8949 76.116L112.502 102.069L152.219 115.018L150.916 155.307L39.4939 124.069L33.6139 122.422C33.3979 122.361 33.1049 122.319 32.8789 122.309C32.4199 122.276 21.4039 121.262 20.8679 96.756ZM140.739 280.865L23.4399 247.979C23.2229 247.916 22.9329 247.874 22.7069 247.863C22.2399 247.832 11.2189 246.819 10.6859 222.319C10.4959 213.565 12.0619 207.248 15.2049 204.031C17.2139 201.979 19.5799 201.552 21.1989 201.552C22.0579 201.552 22.6729 201.667 22.7179 201.667C22.7179 201.667 22.7229 201.667 22.7179 201.667L142.034 240.575L140.739 280.865ZM294.444 239.458C294.629 241.262 294.835 242.901 295.035 244.151L147.223 280.922L148.515 240.912L180.116 234.415L184.783 235.544L202.275 229.859L282.906 213.29L298.363 210.11C293.421 219.145 293.626 231.516 294.444 239.458ZM302.586 185.083C302.317 185.089 302.048 185.125 301.795 185.205L290.647 188.326L184.499 218.09L183.201 177.801L218.027 166.442L302.354 138.941C302.365 138.936 306.79 137.953 310.038 141.256C313.182 144.47 314.742 150.793 314.558 159.536C314.008 184.034 302.987 185.052 302.586 185.083Z" fill="#3B3B3B"/>
</g>
<defs>
<clipPath id="clip0">
<rect width="335.08" height="335.079" fill="white" transform="translate(0.159912 -0.000976562)"/>
</clipPath>
</defs>
</svg>
